<?xml version="1.0" encoding="utf-8"?>
<!-- Generator: Adobe Illustrator 26.5.0, SVG Export Plug-In . SVG Version: 6.00 Build 0)  -->
<svg version="1.1" id="Capa_1" xmlns="http://www.w3.org/2000/svg" xmlns:xlink="http://www.w3.org/1999/xlink" x="0px" y="0px"
	 viewBox="0 0 200 200" style="enable-background:new 0 0 200 200;" xml:space="preserve">
<style type="text/css">
	.st0{fill:#56B75D;}
</style>
<path class="st0" d="M123.4,70.4c8.9,3.8,19.3,8.1,24,15.8c4.7,7.7,3.8,18.9,3.1,33s-1.1,31.2-9.5,40.7c-8.3,9.5-24.7,11.6-38.3,7.9
	c-13.7-3.7-24.6-13.1-38.4-20.9c-13.7-7.8-30.2-13.9-31.8-23.8c-1.5-9.8,11.8-23.3,19.4-36.2c7.7-12.9,9.5-25.3,16.5-29.6
	c7-4.4,19.3-0.8,29.1,2.6C107.3,63.3,114.6,66.6,123.4,70.4z"/>
</svg>
