<?xml version="1.0" encoding="utf-8"?>
<!-- Generator: Adobe Illustrator 22.1.0, SVG Export Plug-In . SVG Version: 6.00 Build 0)  -->
<svg version="1.1" id="Layer_1" xmlns="http://www.w3.org/2000/svg" xmlns:xlink="http://www.w3.org/1999/xlink" x="0px" y="0px"
	 viewBox="0 0 512 512" style="enable-background:new 0 0 512 512;" xml:space="preserve">
<style type="text/css">
	.st0{fill:#FF917B;}
	.st1{fill:#E56A77;}
</style>
<g id="group-5svg">
	<path id="path-1" d="M357,260.6c-2.4,0-4.9-0.9-6.7-2.8c-3.7-3.7-3.7-9.8,0-13.5l34.6-34.6c3.7-3.7,9.7-3.7,13.5,0
		c3.7,3.7,3.7,9.8,0,13.5l-34.6,34.6C361.9,259.6,359.4,260.6,357,260.6z"/>
	<path id="path-2" d="M149.1,260.6c-2.4,0-4.9-0.9-6.7-2.8l-34.6-34.6c-3.7-3.7-3.7-9.7,0-13.5c3.7-3.7,9.7-3.7,13.5,0l34.6,34.6
		c3.7,3.7,3.7,9.8,0,13.5C154,259.6,151.5,260.6,149.1,260.6z"/>
	<path id="path-3" d="M446.5,349h-31.7c-5.3,0-9.5-4.3-9.5-9.5s4.3-9.5,9.5-9.5h31.7c5.3,0,9.5,4.3,9.5,9.5S451.7,349,446.5,349z"/>
	<path id="path-4" d="M103.6,349H65.5c-5.3,0-9.5-4.3-9.5-9.5s4.3-9.5,9.5-9.5h38.1c5.3,0,9.5,4.3,9.5,9.5S108.9,349,103.6,349z"/>
	<path id="path-5" d="M252.8,225.2c-5.3,0-9.5-4.3-9.5-9.5v-63.5c0-5.3,4.3-9.5,9.5-9.5c5.3,0,9.5,4.3,9.5,9.5v63.5
		C262.3,221,258.1,225.2,252.8,225.2z"/>
	<path id="path-6" class="st0" d="M401.9,368.1c0-64.9-52.6-117.5-117.5-117.5s-117.5,52.6-117.5,117.5l0,0"/>
	<path id="path-7" class="st1" d="M269.4,369.3c0-28.3,22.9-51.2,51.2-51.2c28.3,0,51.2,22.9,51.2,51.2l0,0"/>
	<path id="path-8" d="M370.2,364.9c-5.3,0-9.5-4.3-9.5-9.5c0-59.5-48.4-108-108-108c-59.5,0-108,48.4-108,108c0,5.3-4.3,9.5-9.5,9.5
		c-5.3,0-9.5-4.3-9.5-9.5c0-70,57-127,127-127c70,0,127,57,127,127C379.7,360.6,375.4,364.9,370.2,364.9z"/>
	<path id="path-9" d="M340,366.1c-5.3,0-9.5-4.3-9.5-9.5c0-23-18.7-41.6-41.6-41.6c-23,0-41.7,18.7-41.7,41.6c0,5.3-4.3,9.5-9.5,9.5
		c-5.3,0-9.5-4.3-9.5-9.5c0-33.5,27.2-60.7,60.7-60.7c33.5,0,60.7,27.2,60.7,60.7C349.5,361.9,345.2,366.1,340,366.1z"/>
</g>
</svg>
