<?xml version="1.0" encoding="utf-8"?>
<!-- Generator: Adobe Illustrator 22.1.0, SVG Export Plug-In . SVG Version: 6.00 Build 0)  -->
<svg version="1.1" id="Layer_1" xmlns="http://www.w3.org/2000/svg" xmlns:xlink="http://www.w3.org/1999/xlink" x="0px" y="0px"
	 viewBox="0 0 512 512" style="enable-background:new 0 0 512 512;" xml:space="preserve">
<style type="text/css">
	.st0{fill:#8B71B5;}
</style>
<g id="group-6svg">
	<path id="path-1" class="st0" d="M254.6,284.8c-54.5-54.5-68.7-133.8-43-201.4c-24.3,9.2-47.1,23.5-66.6,43c-74,74-74,194,0,268
		c74,74,194,74,268,0c19.5-19.5,33.8-42.3,43-66.6C388.4,353.5,309.1,339.3,254.6,284.8z"/>
	<path id="path-2" d="M254.6,446.9c-53.1,0-103-20.7-140.5-58.2c-77.5-77.5-77.5-203.5,0-281c19.9-19.9,43.3-35,69.8-45.1
		c3.4-1.3,7.2-0.5,9.7,2.1c2.6,2.6,3.4,6.4,2.1,9.7c-25.2,66.4-9.2,141.6,40.9,191.7c34,34,79.2,52.7,127.3,52.7
		c22.1,0,43.8-4,64.3-11.8c3.4-1.3,7.2-0.5,9.7,2.1c2.6,2.5,3.4,6.4,2.1,9.7c-10.1,26.5-25.2,50-45.1,69.8
		C357.5,426.2,307.6,446.9,254.6,446.9z M172.2,87.9c-16.7,8.5-31.9,19.5-45.2,32.9c-70.3,70.3-70.3,184.7,0,255
		c34.1,34.1,79.3,52.8,127.5,52.8c48.2,0,93.5-18.8,127.5-52.8c13.3-13.3,24.3-28.5,32.8-45.2c-16.6,4.4-33.6,6.6-51,6.6
		c-53,0-102.8-20.6-140.3-58.1C173.5,228.9,154.3,155.7,172.2,87.9z"/>
</g>
</svg>
