<?xml version="1.0" encoding="utf-8"?>
<!-- Generator: Adobe Illustrator 22.1.0, SVG Export Plug-In . SVG Version: 6.00 Build 0)  -->
<svg version="1.1" id="Layer_1" xmlns="http://www.w3.org/2000/svg" xmlns:xlink="http://www.w3.org/1999/xlink" x="0px" y="0px"
	 viewBox="0 0 512 512" style="enable-background:new 0 0 512 512;" xml:space="preserve">
<style type="text/css">
	.st0{fill:#FF917B;}
	.st1{fill:#53ECF4;}
	.st2{fill:#8B71B5;}
</style>
<g id="group-7svg">
	<path id="path-1" class="st0" d="M170.1,292.6c-3.6-1.3-10.3-16.4-10.3-16.4c-17-44.1,5-93.7,49.1-110.7c44.1-17,93.7,5,110.7,49.1
		l10.9,36.9L170.1,292.6L170.1,292.6z"/>
	<path id="path-2" class="st1" d="M142.5,418.9h244.3c13.8,0,27.1-4.5,37-14.1c20.3-19.5,31.8-45.6,32.2-77.4
		c0.6-48.5-30.9-91.6-78.3-101.8c-40.6-8.7-78.2,6.3-101.3,34.2c-10.4-4.4-21.7-6.9-33.7-6.9c-36.6,0-67.8,22.8-80.4,54.9
		c-15.9-3.6-33.9-2-53.1,16.4c-11.9,11.4-19.7,26.7-19.6,43.1c0,9.1,2.1,16.7,5.8,24.3C104.1,409.2,122.8,418.9,142.5,418.9z"/>
	<path id="path-3" class="st2" d="M385.9,372.6c0.4-29.9-19.1-56.7-48.3-62.9c-25-5.4-48.3,3.8-62.5,21.1
		c-6.4-2.7-13.4-4.3-20.8-4.3c-22.6,0-41.8,14-49.6,33.9c-9.8-2.2-20.9-1.3-32.8,10.1l0,0"/>
	<path id="path-4" d="M362.3,412.8H118.1c-25.1,0-45.8-11.6-55.3-30.9c-4.2-8.5-6.7-15.9-6.8-26.8c-0.1-18.2,7.9-35.9,22.5-49.8
		c16.4-15.7,34.6-22.4,54-20c15.9-33,48.8-53.9,85.9-53.9c10.6,0,21.1,1.7,31,5.2c20.9-22.4,50.1-35.2,81.1-35.2
		c8.2,0,16.5,0.9,24.7,2.7c51,10.9,86.2,56.4,85.5,110.5c-0.4,33.2-12.2,61.2-35.1,83.1C395.2,407.7,380.6,412.8,362.3,412.8z
		 M124.8,303.1c-11.8,0-22.8,5-33.7,15.4c-10.9,10.4-16.9,23.4-16.8,36.5c0,7.5,1.7,12.2,4.9,18.8c6.4,13,20.9,20.7,38.8,20.7h244.3
		c13.6,0,23.7-3.3,30.7-10c19.2-18.4,29.1-42,29.4-70.1c0.6-45.3-28.7-83.3-71.1-92.4c-34.9-7.5-70.3,4.7-92.3,31.3
		c-2.6,3.1-6.9,4.2-10.7,2.6c-9.6-4.1-19.7-6.1-30.1-6.1c-32,0-60.2,19.3-71.8,49.1c-1.6,4.2-6.2,6.6-10.6,5.6
		C132,303.5,128.3,303.1,124.8,303.1z"/>
	<path id="path-5" d="M361.4,370c0,0-0.1,0-0.1,0c-5.1,0-9.1-4.5-9.1-9.5c0.3-26.5-16.6-48.7-41.1-54c-20.6-4.4-40.6,2.2-53.5,17.9
		c-2.6,3.1-6.9,4.2-10.7,2.6c-5.6-2.4-11.4-3.6-17.2-3.6c-18.3,0-34.4,11-41.1,28c-1.6,4.2-6.1,6.6-10.6,5.6
		c-6.5-1.5-14.5-1.7-24.4,7.8c-3.7,3.5-9.5,3.4-13-0.3c-3.5-3.7-3.4-9.5,0.3-13c10.3-9.9,21.3-14.3,33.7-13.5
		c10.8-20.3,31.6-33,55-33c6.1,0,12.2,0.9,18.2,2.8c17.2-17.3,42.3-24.6,67.1-19.3c32.6,7,56,37.5,55.6,72.3
		C370.5,365.7,366.4,370,361.4,370z"/>
	<path id="path-6" d="M258.9,144.1c-1.2,0-2.5-0.3-3.7-0.8c-4.6-2.1-6.7-7.5-4.7-12.1L265,98.6c2.1-4.6,7.5-6.7,12.1-4.7
		c4.6,2.1,6.7,7.5,4.7,12.1l-14.5,32.6C265.8,142.1,262.4,144.1,258.9,144.1z"/>
	<path id="path-7" d="M117.6,198.5c-1.2,0-2.5-0.3-3.7-0.8l-32.6-14.5c-4.6-2.1-6.7-7.5-4.7-12.1c2-4.6,7.5-6.7,12.1-4.7l32.6,14.5
		c4.6,2.1,6.7,7.5,4.7,12.1C124.4,196.5,121.1,198.5,117.6,198.5z"/>
	<path id="path-8" d="M318.1,192c-3.7,0-7.1-2.2-8.5-5.9c-1.8-4.7,0.5-10,5.3-11.8l24.9-9.6c4.7-1.8,10,0.5,11.8,5.3
		c1.8,4.7-0.5,10-5.3,11.8l-24.9,9.6C320.3,191.8,319.2,192,318.1,192z"/>
	<path id="path-9" d="M81.1,283.3c-3.7,0-7.1-2.2-8.5-5.9c-1.8-4.7,0.5-10,5.3-11.8l31.2-12c4.7-1.8,10,0.5,11.8,5.3
		c1.8,4.7-0.5,10-5.3,11.8l-31.2,12C83.3,283.1,82.2,283.3,81.1,283.3z"/>
	<path id="path-10" d="M176.5,149.8c-3.7,0-7.1-2.2-8.5-5.9l-14.4-37.4c-1.8-4.7,0.5-10,5.3-11.8c4.7-1.8,10,0.5,11.8,5.3l14.4,37.4
		c1.8,4.7-0.5,10-5.3,11.8C178.7,149.6,177.6,149.8,176.5,149.8z"/>
	<path id="path-11" d="M145.7,289.5c-1,0-2.1-0.2-3.1-0.6c-2.3-0.9-7.2-2.6-15.5-21.3c-9.3-24.1-8.6-49.8,1.6-73
		c10.3-23.1,28.9-40.9,52.6-50c23.6-9.1,49.4-8.4,72.5,1.8c23.1,10.3,40.9,28.9,50,52.6c1.8,4.7-0.5,10-5.3,11.8
		c-4.7,1.8-10-0.5-11.8-5.3c-7.3-19.1-21.7-34.1-40.3-42.4c-18.7-8.3-39.5-8.8-58.5-1.5c-19.1,7.3-34.1,21.7-42.4,40.3
		c-8.3,18.7-8.8,39.5-1.5,58.5c2,4.5,5.1,10.1,6.5,11.9c3.6,2.2,5.3,6.8,3.8,11C152.9,287.2,149.4,289.5,145.7,289.5z"/>
</g>
</svg>
