<?xml version="1.0" encoding="utf-8"?>
<!-- Generator: Adobe Illustrator 26.5.0, SVG Export Plug-In . SVG Version: 6.00 Build 0)  -->
<svg version="1.1" id="Layer_1" xmlns="http://www.w3.org/2000/svg" xmlns:xlink="http://www.w3.org/1999/xlink" x="0px" y="0px"
	 viewBox="0 0 512 512" style="enable-background:new 0 0 512 512;" xml:space="preserve">
<style type="text/css">
	.st0{fill:#8B71B5;}
	.st1{fill:#53ECF4;}
</style>
<g>
	<path id="path-1" class="st0" d="M221.3,231.1c-27.2-27.2-34.3-66.9-21.5-100.7c-12.1,4.6-23.5,11.7-33.3,21.5
		c-37,37-37,90.3,0,127.3l0,0"/>
	<g id="group-7svg">
		<path id="path-2" class="st1" d="M142.5,399h244.3c13.8,0,27.1-4.5,37-14.1c20.3-19.5,31.8-45.6,32.2-77.4
			c0.6-48.5-30.9-91.6-78.3-101.8c-40.6-8.7-78.2,6.3-101.3,34.2c-10.4-4.4-21.7-6.9-33.7-6.9c-36.6,0-67.8,22.8-80.4,54.9
			c-15.9-3.6-33.9-2-53.1,16.4c-11.9,11.4-19.7,26.7-19.6,43.1c0,9.1,2.1,16.7,5.8,24.3C104.1,389.3,122.8,399,142.5,399z"/>
		<path id="path-3" class="st0" d="M385.9,352.7c0.4-29.9-19.1-56.7-48.3-62.9c-25-5.4-48.3,3.8-62.5,21.1
			c-6.4-2.7-13.4-4.3-20.8-4.3c-22.6,0-41.8,14-49.6,33.9c-9.8-2.2-20.9-1.3-32.8,10.1l0,0"/>
		<path id="path-4" d="M362.3,392.9H118.1c-25.1,0-45.8-11.6-55.3-30.9c-4.2-8.5-6.7-15.9-6.8-26.8c-0.1-18.2,7.9-35.9,22.5-49.8
			c16.4-15.7,34.6-22.4,54-20c15.9-33,48.8-53.9,85.9-53.9c10.6,0,21.1,1.7,31,5.2c20.9-22.4,50.1-35.2,81.1-35.2
			c8.2,0,16.5,0.9,24.7,2.7c51,10.9,86.2,56.4,85.5,110.5c-0.4,33.2-12.2,61.2-35.1,83.1C395.2,387.8,380.6,392.9,362.3,392.9z
			 M124.8,283.2c-11.8,0-22.8,5-33.7,15.4S74.2,322,74.3,335.1c0,7.5,1.7,12.2,4.9,18.8c6.4,13,20.9,20.7,38.8,20.7h244.3
			c13.6,0,23.7-3.3,30.7-10c19.2-18.4,29.1-42,29.4-70.1c0.6-45.3-28.7-83.3-71.1-92.4c-34.9-7.5-70.3,4.7-92.3,31.3
			c-2.6,3.1-6.9,4.2-10.7,2.6c-9.6-4.1-19.7-6.1-30.1-6.1c-32,0-60.2,19.3-71.8,49.1c-1.6,4.2-6.2,6.6-10.6,5.6
			C132,283.6,128.3,283.2,124.8,283.2z"/>
		<path id="path-5" d="M361.4,350.1h-0.1c-5.1,0-9.1-4.5-9.1-9.5c0.3-26.5-16.6-48.7-41.1-54c-20.6-4.4-40.6,2.2-53.5,17.9
			c-2.6,3.1-6.9,4.2-10.7,2.6c-5.6-2.4-11.4-3.6-17.2-3.6c-18.3,0-34.4,11-41.1,28c-1.6,4.2-6.1,6.6-10.6,5.6
			c-6.5-1.5-14.5-1.7-24.4,7.8c-3.7,3.5-9.5,3.4-13-0.3c-3.5-3.7-3.4-9.5,0.3-13c10.3-9.9,21.3-14.3,33.7-13.5
			c10.8-20.3,31.6-33,55-33c6.1,0,12.2,0.9,18.2,2.8c17.2-17.3,42.3-24.6,67.1-19.3c32.6,7,56,37.5,55.6,72.3
			C370.5,345.8,366.4,350.1,361.4,350.1z"/>
	</g>
	<path id="path-19" d="M142.1,276.2c-2.3,0-4.7-0.9-6.5-2.7c-40.6-40.6-40.6-99.6,0-140.3c10.4-10.4,22.7-18.3,36.5-23.6
		c3.4-1.3,7.2-0.5,9.7,2.1c2.6,2.6,3.4,6.4,2.1,9.7c-12,31.5-4.3,67.2,19.4,91c3.6,3.6,3.6,9.4,0,13s-9.4,3.6-13,0
		c-23.7-23.7-34.2-57.3-29.1-89.7c-4.6,3.1-8.8,6.6-12.8,10.5c-33.7,33.7-33.7,80.7,0,114.4c3.6,3.6,3.6,9.4,0,13
		C146.7,275.3,144.4,276.2,142.1,276.2z"/>
</g>
</svg>
