<?xml version="1.0" encoding="utf-8"?>
<!-- Generator: Adobe Illustrator 22.1.0, SVG Export Plug-In . SVG Version: 6.00 Build 0)  -->
<svg version="1.1" id="Layer_1" xmlns="http://www.w3.org/2000/svg" xmlns:xlink="http://www.w3.org/1999/xlink" x="0px" y="0px"
	 viewBox="0 0 512 512" style="enable-background:new 0 0 512 512;" xml:space="preserve">
<style type="text/css">
	.st0{fill:#53ECF4;}
	.st1{fill:#8B71B5;}
</style>
<g id="group-2svg">
	<path id="path-1" class="st0" d="M152,359.6h236.9c13.4,0,26.3-2.5,35.9-11.8c19.7-18.9,30.9-43.3,31.3-74.1
		c0.6-47-30-88.4-75.9-98.3c-39.3-8.4-75.9,6.3-98.2,33.4c-10-4.3-21.1-6.6-32.7-6.6c-35.5,0-65.8,22.1-77.9,53.3
		c-15.4-3.5-32.9-1.9-51.5,15.9c-11.5,11-19.1,25.9-19,41.9c0,8.9,2.1,14.4,5.7,21.7C114.7,352.1,132.9,359.6,152,359.6z"/>
	<path id="path-2" class="st1" d="M388,318.5c0.4-29-18.5-54.9-46.9-61c-24.3-5.2-46.8,3.7-60.6,20.4c-6.2-2.6-13-4.2-20.2-4.2
		c-21.9,0-40.6,13.6-48.1,32.9c-9.5-2.2-20.3-1.2-31.8,9.8l0,0"/>
	<path id="path-3" d="M353.3,359.6H116.4c-23.8,0-44.4-11.9-53.8-31.1c-4.6-9.3-6.6-17.4-6.6-27c-0.1-17.7,7.7-34.9,21.9-48.5
		c15.9-15.2,33.5-21.7,52.3-19.5c15.5-31.9,47.5-52.2,83.4-52.2c10.2,0,20.3,1.7,30,5c20.2-21.6,48.5-33.9,78.7-33.9
		c8,0,16.1,0.9,24.1,2.6c49.6,10.7,83.8,54.9,83.2,107.7c-0.4,32.6-11.9,60-34.1,81.3C384.9,354.2,370.3,359.6,353.3,359.6z
		 M123,251.4c-11.4,0-22,4.9-32.4,14.9c-10.5,10-16.3,22.5-16.2,35.2c0,6.7,1.4,12.2,4.7,19c6.3,12.9,20.7,20.9,37.4,20.9h236.9
		c8.5,0,20.4-1.8,29.6-10.6c18.5-17.8,28.1-40.8,28.4-68.3c0.5-43.9-27.7-80.7-68.7-89.5c-33.8-7.3-68.1,4.5-89.2,30.1
		c-2.6,3.1-6.9,4.2-10.7,2.6c-9.3-4-19.1-6-29.1-6c-30.9,0-58.1,18.6-69.4,47.4c-1.6,4.2-6.1,6.6-10.6,5.6
		C129.9,251.8,126.4,251.4,123,251.4z"/>
	<path id="path-4" d="M352.5,316.9c0,0-0.1,0-0.1,0c-5.1,0-9.1-4.8-9-9.8c0.3-25.5-16-47.2-39.6-52.2c-19.9-4.3-39.2,2.1-51.6,17.2
		c-2.6,3.1-6.9,4.1-10.7,2.5c-5.4-2.3-11-3.5-16.6-3.5c-17.6,0-33.1,10.6-39.6,27c-1.6,4.2-6.1,6.6-10.6,5.6
		c-6.2-1.4-13.9-1.6-23.5,7.5c-3.7,3.5-9.4,3.4-12.9-0.3s-3.4-9.5,0.3-13c10-9.6,20.8-14,32.7-13.2c10.5-19.7,30.8-32,53.5-32
		c5.9,0,11.8,0.9,17.5,2.6c16.7-16.7,41.1-23.8,65.2-18.7c31.8,6.8,54.5,36.8,54.1,70.7C361.5,312.3,357.5,316.9,352.5,316.9z"/>
</g>
</svg>
