<?xml version="1.0" encoding="utf-8"?>
<!-- Generator: Adobe Illustrator 22.1.0, SVG Export Plug-In . SVG Version: 6.00 Build 0)  -->
<svg version="1.1" id="Layer_1" xmlns="http://www.w3.org/2000/svg" xmlns:xlink="http://www.w3.org/1999/xlink" x="0px" y="0px"
	 viewBox="0 0 512 512" style="enable-background:new 0 0 512 512;" xml:space="preserve">
<style type="text/css">
	.st0{fill:#53ECF4;}
</style>
<g id="group-16svg">
	<path id="path-1" class="st0" d="M424.3,362.3c20-19.2,31.3-45.3,31.7-76.6c0.6-47.7-30.4-90.4-77.1-100.4
		c-39.9-8.6-77,6.1-99.7,33.6c-10.2-4.3-21.4-6.9-33.2-6.9c-36,0-66.7,22.4-79.1,54c-15.6-3.5-33.4-2-52.3,16.1
		c-11.7,11.2-19.4,26.3-19.3,42.5c0,9,2.1,17.2,5.7,24.6l0,0"/>
	<path id="path-2" d="M394.2,347.6c-2.4,0-4.9-1-6.7-2.9c-3.6-3.7-3.4-9.6,0.3-13.2c18.5-17.8,28.5-42,28.9-70
		c0.5-44.8-28.1-82.2-69.7-91.2c-34.8-7.5-68.7,3.9-90.5,30.4c-2.6,3.2-7,4.3-10.8,2.6c-9.6-4.1-19.5-6.1-29.5-6.1
		c-31.4,0-59,18.9-70.4,48.1c-1.7,4.3-6.2,6.7-10.7,5.7c-11.1-2.5-26.1-3.2-43.8,13.8c-10.7,10.2-16.5,22.9-16.5,35.7
		c0,7.2,1.6,14.1,4.8,20.5c2.3,4.6,0.4,10.2-4.2,12.5c-4.6,2.3-10.2,0.4-12.4-4.2c-4.4-9-6.7-18.6-6.7-28.7
		c-0.1-18,7.8-35.5,22.2-49.2c16.2-15.5,33.7-22,53.1-19.8c15.7-32.4,48.2-52.9,84.7-52.9c10.3,0,20.5,1.7,30.5,5.2
		c26.1-27.9,65.5-40,104.3-31.7c49.6,10.6,85.1,56.7,84.4,109.6c-0.4,33-12.4,61.8-34.6,83.1C398.9,346.7,396.5,347.6,394.2,347.6z"
		/>
	<path id="path-3" d="M142.3,349.1c-5.1,0-9.3-3.6-9.3-8.8c0-5.1,4.1-9.1,9.3-9.1L294,331c27-0.1,53.2-25.9,54-53.2
		c0.4-13.9-5.4-30.3-13.4-38.2c-9-8.9-20.9-13.6-33.5-13.6c-12.6,0.1-24.4,5.1-33.3,14.1c-6.7,6.8-10.4,15.9-10.3,25.5
		c0.1,9.6,3.9,18.6,10.7,25.3c10.4,10.2,27.2,10.2,37.6,0.1c4.2-4.1,6.2-10,5.5-16.2c-0.9-7.7-4.7-13.2-10.4-15.2
		c-5-1.8-10.5-0.5-14.3,3.3c-3.6,3.6-9.5,3.6-13.2,0c-3.6-3.6-3.6-9.5,0-13.2c8.9-8.9,21.7-11.8,33.6-7.7
		c12.6,4.4,21.1,15.8,22.8,30.6c1.4,12-2.6,23.6-11,31.7c-17.6,17.1-46.1,17-63.6-0.2c-10.4-10.2-16.2-23.9-16.3-38.4
		c-0.1-14.6,5.4-28.3,15.6-38.7c12.3-12.5,28.8-19.5,46.4-19.7c17.7-0.2,34.2,6.6,46.7,18.9c11.7,11.5,19.5,32.9,18.9,52
		c-1.1,37.3-35.6,70.8-72.6,70.9L142.3,349.1C142.3,349.1,142.3,349.1,142.3,349.1z"/>
</g>
</svg>
