<?xml version="1.0" encoding="utf-8"?>
<!-- Generator: Adobe Illustrator 22.1.0, SVG Export Plug-In . SVG Version: 6.00 Build 0)  -->
<svg version="1.1" id="Layer_1" xmlns="http://www.w3.org/2000/svg" xmlns:xlink="http://www.w3.org/1999/xlink" x="0px" y="0px"
	 viewBox="0 0 512 512" style="enable-background:new 0 0 512 512;" xml:space="preserve">
<style type="text/css">
	.st0{fill:#53ECF4;}
	.st1{fill:#8B71B5;}
</style>
<g id="group-4svg">
	<path id="path-1" class="st0" d="M424.3,296.2c19.9-19.2,31.3-45.2,31.7-76.4c0.6-47.6-30.4-90.2-76.9-100.2
		c-39.8-8.6-76.9,6.1-99.5,33.5c-10.2-4.3-21.4-6.9-33.1-6.9c-36,0-66.6,22.3-78.9,53.9c-15.6-3.5-33.3-2-52.2,16.1
		c-11.7,11.2-19.4,26.2-19.3,42.4c0,9,2.1,17.1,5.7,24.6l0,0"/>
	<path id="path-2" class="st1" d="M387.1,263.8c0.4-29.4-18.7-55.7-47.5-61.8c-24.6-5.3-47.4,3.8-61.4,20.7
		c-6.3-2.7-13.2-4.2-20.4-4.2c-22.2,0-41.1,13.8-48.7,33.3c-9.6-2.2-20.5-1.2-32.2,9.9l0,0"/>
	<path id="path-3" d="M393.7,287.3c-2.5,0-5-1-6.8-2.9c-3.6-3.8-3.5-9.8,0.3-13.4c18.5-17.7,28.4-41.8,28.7-69.7
		c0.5-44.6-28-81.9-69.4-90.8c-34.7-7.4-68.4,3.9-90.2,30.3c-2.7,3.2-7.1,4.3-11,2.7c-9.6-4.1-19.5-6.1-29.4-6.1
		c-31.2,0-58.8,18.8-70.1,47.9c-1.7,4.4-6.3,6.8-10.9,5.8c-11-2.5-25.9-3.2-43.6,13.7c-10.6,10.1-16.4,22.7-16.4,35.5
		c0,7.2,1.6,14,4.8,20.4c2.3,4.7,0.4,10.4-4.3,12.7S65,273.7,62.7,269c-4.4-9-6.7-18.6-6.7-28.7c-0.1-18,7.8-35.5,22.2-49.3
		c16.2-15.5,33.6-22,53-19.8c15.7-32.3,48.2-52.8,84.6-52.8c10.3,0,20.5,1.7,30.4,5.1c26.1-27.8,65.4-39.9,104.2-31.6
		c49.5,10.6,85,56.7,84.4,109.6c-0.4,33-12.4,61.8-34.6,83.1C398.5,286.4,396.1,287.3,393.7,287.3z"/>
	<path id="path-4" d="M356.5,255.1c0,0-0.1,0-0.1,0c-5.2,0-9.4-4.4-9.4-9.7c0.3-25.8-16.1-47.4-40-52.5c-20-4.3-39.5,2.2-52.1,17.4
		c-2.7,3.2-7.1,4.3-11,2.7c-5.4-2.3-11.1-3.5-16.7-3.5c-17.8,0-33.4,10.7-39.9,27.3c-1.7,4.4-6.3,6.8-10.9,5.8
		c-6.3-1.4-14-1.6-23.6,7.5c-3.8,3.6-9.8,3.5-13.4-0.3c-3.6-3.8-3.5-9.8,0.3-13.4c10-9.5,21.1-14,33.1-13.4
		c10.7-19.9,31.3-32.4,54.4-32.4c6,0,11.9,0.9,17.7,2.7c17-16.9,41.7-24.1,66.1-18.9c32.3,6.9,55.4,37,54.9,71.3
		C365.9,250.9,361.7,255.1,356.5,255.1z"/>
	<path id="path-5" d="M359.9,305.2c-1.3,0-2.6-0.3-3.9-0.8c-4.8-2.2-6.9-7.8-4.7-12.5l6.9-15.2c2.2-4.8,7.8-6.9,12.5-4.7
		c4.8,2.2,6.9,7.8,4.7,12.5l-6.9,15.3C366.9,303.1,363.5,305.2,359.9,305.2z"/>
	<path id="path-6" d="M299.5,305.2c-1.3,0-2.6-0.3-3.9-0.8c-4.8-2.2-6.9-7.8-4.7-12.5l6.9-15.2c2.2-4.8,7.8-6.9,12.5-4.7
		c4.8,2.2,6.9,7.8,4.7,12.5l-6.9,15.3C306.5,303.1,303.1,305.2,299.5,305.2z"/>
	<path id="path-7" d="M239,305.2c-1.3,0-2.6-0.3-3.9-0.8c-4.8-2.2-6.9-7.8-4.7-12.5l6.9-15.2c2.2-4.8,7.8-6.9,12.5-4.7
		c4.8,2.2,6.9,7.8,4.7,12.5l-6.9,15.3C246.1,303.1,242.6,305.2,239,305.2z"/>
	<path id="path-8" d="M178.6,305.2c-1.3,0-2.6-0.3-3.9-0.8c-4.8-2.2-6.9-7.8-4.7-12.5l6.9-15.2c2.2-4.8,7.8-6.9,12.5-4.7
		c4.8,2.2,6.9,7.8,4.7,12.5l-6.9,15.3C185.6,303.1,182.2,305.2,178.6,305.2z"/>
	<path id="path-9" d="M118.2,305.2c-1.3,0-2.6-0.3-3.9-0.8c-4.8-2.2-6.9-7.8-4.7-12.5l6.9-15.2c2.2-4.8,7.8-6.9,12.5-4.7
		c4.8,2.2,6.9,7.8,4.7,12.5l-6.9,15.3C125.2,303.1,121.8,305.2,118.2,305.2z"/>
	<path id="path-10" d="M311.5,367.3c-1.3,0-2.6-0.3-3.9-0.8c-4.8-2.2-6.9-7.8-4.7-12.5l6.9-15.2c2.2-4.8,7.8-6.9,12.5-4.7
		c4.8,2.2,6.9,7.8,4.7,12.5l-6.9,15.2C318.6,365.3,315.1,367.3,311.5,367.3z"/>
	<path id="path-11" d="M251.1,367.3c-1.3,0-2.6-0.3-3.9-0.8c-4.8-2.2-6.9-7.8-4.7-12.5l6.9-15.2c2.1-4.8,7.8-6.9,12.5-4.7
		c4.8,2.2,6.9,7.8,4.7,12.5l-6.9,15.2C258.2,365.3,254.7,367.3,251.1,367.3z"/>
	<path id="path-12" d="M190.7,367.3c-1.3,0-2.6-0.3-3.9-0.8c-4.8-2.2-6.9-7.8-4.7-12.5l6.9-15.2c2.2-4.8,7.8-6.9,12.5-4.7
		c4.8,2.2,6.9,7.8,4.7,12.5l-6.9,15.2C197.7,365.3,194.3,367.3,190.7,367.3z"/>
	<path id="path-13" d="M130.3,367.3c-1.3,0-2.6-0.3-3.9-0.8c-4.8-2.2-6.9-7.8-4.7-12.5l6.9-15.2c2.2-4.8,7.8-6.9,12.5-4.7
		c4.8,2.2,6.9,7.8,4.7,12.5l-6.9,15.2C137.3,365.3,133.9,367.3,130.3,367.3z"/>
	<path id="path-14" d="M256.3,422.6c-1.3,0-2.6-0.3-3.9-0.8c-4.8-2.2-6.9-7.8-4.7-12.5l6.9-15.2c2.2-4.8,7.8-6.9,12.5-4.7
		c4.8,2.2,6.9,7.8,4.7,12.5l-6.9,15.2C263.3,420.5,259.9,422.6,256.3,422.6z"/>
	<path id="path-15" d="M195.9,422.6c-1.3,0-2.6-0.3-3.9-0.8c-4.8-2.2-6.9-7.8-4.7-12.5l6.9-15.2c2.2-4.8,7.8-6.9,12.5-4.7
		c4.8,2.2,6.9,7.8,4.7,12.5l-6.9,15.2C202.9,420.5,199.5,422.6,195.9,422.6z"/>
	<path id="path-16" d="M135.4,422.6c-1.3,0-2.6-0.3-3.9-0.8c-4.8-2.2-6.9-7.8-4.7-12.5l6.9-15.2c2.2-4.8,7.8-6.9,12.5-4.7
		c4.8,2.2,6.9,7.8,4.7,12.5l-6.9,15.2C142.5,420.5,139,422.6,135.4,422.6z"/>
</g>
</svg>
