<?xml version="1.0" encoding="utf-8"?>
<!-- Generator: Adobe Illustrator 26.5.0, SVG Export Plug-In . SVG Version: 6.00 Build 0)  -->
<svg version="1.1" id="Layer_1" xmlns="http://www.w3.org/2000/svg" xmlns:xlink="http://www.w3.org/1999/xlink" x="0px" y="0px"
	 viewBox="0 0 512 512" style="enable-background:new 0 0 512 512;" xml:space="preserve">
<style type="text/css">
	.st0{fill:#8B71B5;}
	.st1{fill:#53ECF4;}
</style>
<g>
	<path id="path-1" class="st0" d="M221.3,197.4c-27.2-27.2-34.3-66.9-21.5-100.7c-12.1,4.6-23.5,11.7-33.3,21.5
		c-37,37-37,90.3,0,127.3l0,0"/>
	<path id="path-2" class="st1" d="M424.2,351.7c20-19.2,31.4-45.3,31.7-76.6c0.6-47.7-30.4-90.4-77.1-100.5
		c-40-8.6-77.1,6.1-99.7,33.6c-10.2-4.3-21.4-6.9-33.2-6.9c-36,0-66.8,22.4-79.1,54.1c-15.6-3.5-33.4-2-52.3,16.1
		c-11.7,11.2-19.4,26.3-19.3,42.5c0,9,2.1,17.2,5.8,24.6l0,0"/>
	<path id="path-3" d="M394.2,348.7c-2.4,0-4.7-0.9-6.5-2.8c-3.4-3.6-3.3-9.3,0.3-12.8c18.6-17.9,28.6-42.2,29-70.2
		c0.5-44.9-28.2-82.5-70-91.5c-35-7.4-69,4-91,30.6c-2.6,3.1-6.8,4.1-10.5,2.6c-9.6-4.1-19.6-6.2-29.7-6.2
		c-31.5,0-59.3,19-70.7,48.3c-1.6,4.2-6.1,6.5-10.4,5.5c-11.2-2.5-26.3-3.2-44.1,13.8c-10.7,10.3-16.6,23-16.5,35.9
		c0,7.3,1.7,14.2,4.8,20.7c2.2,4.5,0.3,9.9-4.1,12.1c-4.5,2.2-9.9,0.4-12.1-4.1c-4.4-8.9-6.6-18.6-6.7-28.6
		c-0.1-17.9,7.8-35.3,22.1-49c16.2-15.5,33.7-22,53.1-19.7c15.6-32.4,48.1-53,84.6-53c10.3,0,20.6,1.8,30.6,5.2
		c26.1-28,65.5-40.1,104.3-31.7c49.5,10.6,84.9,56.6,84.2,109.4c-0.4,33-12.3,61.7-34.5,83C398.7,347.9,396.4,348.7,394.2,348.7z"/>
	<path id="path-10" d="M349.7,312.8c-1.2,0-2.5-0.3-3.7-0.8c-4.5-2.1-6.6-7.4-4.5-11.9l6.6-14.5c2.1-4.5,7.4-6.6,11.9-4.5
		s6.6,7.4,4.5,11.9l-6.6,14.5C356.4,310.9,353.1,312.8,349.7,312.8z"/>
	<path id="path-11" d="M292.1,312.8c-1.2,0-2.5-0.3-3.7-0.8c-4.5-2.1-6.6-7.4-4.5-11.9l6.6-14.5c2.1-4.5,7.4-6.6,11.9-4.5
		s6.6,7.4,4.5,11.9l-6.6,14.5C298.8,310.9,295.5,312.8,292.1,312.8z"/>
	<path id="path-12" d="M234.5,312.8c-1.2,0-2.5-0.3-3.7-0.8c-4.5-2.1-6.6-7.4-4.5-11.9l6.6-14.5c2-4.5,7.4-6.6,11.9-4.5
		s6.6,7.4,4.5,11.9l-6.6,14.5C241.2,310.9,237.9,312.8,234.5,312.8z"/>
	<path id="path-13" d="M176.9,312.8c-1.2,0-2.5-0.3-3.7-0.8c-4.5-2.1-6.6-7.4-4.5-11.9l6.6-14.5c2.1-4.5,7.4-6.6,11.9-4.5
		s6.6,7.4,4.5,11.9l-6.6,14.5C183.6,310.9,180.3,312.8,176.9,312.8z"/>
	<path id="path-14" d="M119.3,312.8c-1.2,0-2.5-0.3-3.7-0.8c-4.5-2.1-6.5-7.4-4.5-11.9l6.6-14.5c2.1-4.5,7.4-6.6,11.9-4.5
		s6.6,7.4,4.5,11.9l-6.6,14.5C126,310.9,122.8,312.8,119.3,312.8z"/>
	<path id="path-15" d="M303.6,372.1c-1.2,0-2.5-0.3-3.7-0.8c-4.5-2.1-6.6-7.4-4.5-11.9l6.6-14.5c2.1-4.5,7.4-6.6,11.9-4.5
		s6.6,7.4,4.5,11.9l-6.6,14.5C310.3,370.1,307.1,372.1,303.6,372.1z"/>
	<path id="path-16" d="M246,372.1c-1.2,0-2.5-0.3-3.7-0.8c-4.5-2.1-6.6-7.4-4.5-11.9l6.6-14.5c2.1-4.5,7.4-6.6,11.9-4.5
		c4.5,2.1,6.6,7.4,4.5,11.9l-6.6,14.5C252.7,370.1,249.5,372.1,246,372.1z"/>
	<path id="path-17" d="M188.4,372.1c-1.2,0-2.5-0.3-3.7-0.8c-4.5-2.1-6.6-7.4-4.5-11.9l6.6-14.5c2.1-4.5,7.4-6.6,11.9-4.5
		s6.6,7.4,4.5,11.9l-6.6,14.5C195.1,370.1,191.9,372.1,188.4,372.1z"/>
	<path id="path-18" d="M130.8,372.1c-1.2,0-2.5-0.3-3.7-0.8c-4.5-2.1-6.6-7.4-4.5-11.9l6.6-14.5c2-4.5,7.4-6.6,11.9-4.5
		s6.6,7.4,4.5,11.9l-6.6,14.5C137.6,370.1,134.3,372.1,130.8,372.1z"/>
	<path id="path-19" d="M251,424.7c-1.2,0-2.5-0.3-3.7-0.8c-4.5-2.1-6.6-7.4-4.5-11.9l6.6-14.5c2.1-4.5,7.4-6.6,11.9-4.5
		s6.6,7.4,4.5,11.9l-6.6,14.5C257.7,422.8,254.4,424.7,251,424.7z"/>
	<path id="path-20" d="M193.4,424.7c-1.2,0-2.5-0.3-3.7-0.8c-4.5-2.1-6.6-7.4-4.5-11.9l6.6-14.5c2-4.5,7.4-6.6,11.9-4.5
		s6.6,7.4,4.5,11.9l-6.6,14.5C200.1,422.8,196.8,424.7,193.4,424.7z"/>
	<path id="path-21" d="M135.8,424.7c-1.2,0-2.5-0.3-3.7-0.8c-4.5-2.1-6.6-7.4-4.5-11.9l6.6-14.5c2.1-4.5,7.4-6.6,11.9-4.5
		s6.6,7.4,4.5,11.9l-6.6,14.5C142.5,422.8,139.2,424.7,135.8,424.7z"/>
	<path id="path-19_00000160184541685556938100000012526665645326340770_" d="M142.1,242.5c-2.3,0-4.7-0.9-6.5-2.7
		c-40.6-40.6-40.6-99.6,0-140.3c10.4-10.4,22.7-18.3,36.5-23.6c3.4-1.3,7.2-0.5,9.7,2.1c2.6,2.6,3.4,6.4,2.1,9.7
		c-12,31.5-4.3,67.2,19.4,91c3.6,3.6,3.6,9.4,0,13s-9.4,3.6-13,0c-23.7-23.7-34.2-57.3-29.1-89.7c-4.6,3.1-8.8,6.6-12.8,10.5
		c-33.7,33.7-33.7,80.7,0,114.4c3.6,3.6,3.6,9.4,0,13C146.7,241.6,144.4,242.5,142.1,242.5z"/>
</g>
</svg>
