<?xml version="1.0" encoding="utf-8"?>
<!-- Generator: Adobe Illustrator 22.1.0, SVG Export Plug-In . SVG Version: 6.00 Build 0)  -->
<svg version="1.1" id="Layer_1" xmlns="http://www.w3.org/2000/svg" xmlns:xlink="http://www.w3.org/1999/xlink" x="0px" y="0px"
	 viewBox="0 0 512 512" style="enable-background:new 0 0 512 512;" xml:space="preserve">
<style type="text/css">
	.st0{fill:#FF917B;}
	.st1{fill:#53ECF4;}
</style>
<g id="group-14svg">
	<path id="path-1" class="st0" d="M174.4,264.8c-3.5-1.3-10.1-16.2-10.1-16.2c-16.7-43.5,4.9-92.3,48.4-109s92.3,4.9,109,48.4
		l10.7,36.3L174.4,264.8L174.4,264.8z"/>
	<path id="path-2" class="st1" d="M424.3,379.3c20-19.2,31.4-45.3,31.7-76.6c0.6-47.7-30.4-90.4-77.1-100.5
		c-40-8.6-77.1,6.1-99.8,33.6c-10.2-4.3-21.4-6.9-33.2-6.9c-36,0-66.8,22.4-79.2,54.1c-15.6-3.5-33.4-2-52.3,16.1
		c-11.7,11.2-19.4,26.3-19.3,42.5c0,9,2.1,17.2,5.8,24.6l0,0"/>
	<path id="path-3" d="M394.2,370.3c-2.4,0-4.7-0.9-6.5-2.8c-3.5-3.6-3.3-9.3,0.3-12.8c18.6-17.9,28.6-42.2,29-70.2
		c0.6-44.9-28.2-82.6-70-91.5C312,185.6,278,197,256,223.6c-2.5,3.1-6.8,4.1-10.5,2.6c-9.6-4.1-19.6-6.2-29.7-6.2
		c-31.5,0-59.3,19-70.7,48.3c-1.6,4.2-6.1,6.5-10.4,5.5c-11.2-2.5-26.3-3.2-44.1,13.8c-10.7,10.3-16.6,23-16.5,35.9
		c0,7.3,1.7,14.2,4.8,20.7c2.2,4.5,0.4,9.9-4.1,12.1c-4.5,2.2-9.9,0.4-12.1-4.1c-4.4-8.9-6.6-18.6-6.7-28.6
		c-0.1-17.9,7.8-35.3,22.1-49.1c16.2-15.5,33.7-22,53.1-19.7c15.6-32.4,48.1-53,84.6-53c10.3,0,20.6,1.8,30.6,5.2
		c26.1-28,65.4-40.1,104.3-31.7c49.5,10.6,84.9,56.6,84.2,109.4c-0.4,33-12.3,61.7-34.5,83C398.7,369.5,396.4,370.3,394.2,370.3z"/>
	<path id="path-4" d="M255.9,115.9c-1.2,0-2.5-0.3-3.7-0.8c-4.6-2-6.6-7.4-4.6-11.9L261.9,71c2-4.5,7.3-6.6,11.9-4.6
		c4.6,2,6.6,7.4,4.6,11.9l-14.3,32.1C262.6,113.9,259.3,115.9,255.9,115.9z"/>
	<path id="path-5" d="M116.6,169.5c-1.2,0-2.5-0.3-3.7-0.8l-32.1-14.3c-4.5-2-6.6-7.4-4.6-11.9c2-4.5,7.3-6.6,11.9-4.6l32.1,14.3
		c4.6,2,6.6,7.4,4.6,11.9C123.4,167.5,120.1,169.5,116.6,169.5z"/>
	<path id="path-6" d="M314.1,163c-3.6,0-7-2.2-8.4-5.8c-1.8-4.7,0.5-9.9,5.2-11.7l24.6-9.5c4.6-1.8,9.9,0.5,11.7,5.2
		c1.8,4.6-0.5,9.9-5.2,11.7l-24.6,9.5C316.3,162.8,315.2,163,314.1,163z"/>
	<path id="path-7" d="M80.7,252.9c-3.6,0-7-2.2-8.4-5.8c-1.8-4.6,0.5-9.9,5.2-11.7l30.7-11.8c4.6-1.8,9.9,0.5,11.7,5.2
		c1.8,4.6-0.5,9.9-5.2,11.7L84,252.3C82.9,252.7,81.8,252.9,80.7,252.9z"/>
	<path id="path-8" d="M174.7,121.5c-3.6,0-7-2.2-8.4-5.8l-14.2-36.9c-1.8-4.6,0.5-9.9,5.2-11.7c4.6-1.8,9.9,0.5,11.7,5.2l14.2,36.9
		c1.8,4.6-0.5,9.9-5.2,11.7C176.9,121.3,175.8,121.5,174.7,121.5z"/>
	<path id="path-9" d="M144.3,259.1c-1,0-2.1-0.2-3.1-0.6c-2.3-0.8-7.1-2.6-15.3-21c-18.7-48.5,5.4-102.6,53.4-121.1
		C227.4,98,281.5,122,300,170.1c1.8,4.6-0.5,9.9-5.2,11.7c-4.7,1.8-9.9-0.5-11.7-5.2c-7.2-18.8-21.3-33.6-39.7-41.8
		c-18.4-8.2-38.9-8.7-57.6-1.4c-38.8,14.9-58.1,58.6-43.2,97.4c2,4.5,5,10,6.4,11.7c3.6,2.2,5.2,6.7,3.7,10.8
		C151.5,256.8,148,259.1,144.3,259.1z"/>
	<path id="path-10" d="M303.6,393.7c-1.2,0-2.5-0.3-3.7-0.8c-4.5-2.1-6.6-7.4-4.5-11.9l6.6-14.5c2.1-4.5,7.4-6.6,11.9-4.5
		c4.5,2.1,6.6,7.4,4.5,11.9l-6.6,14.5C310.3,391.7,307,393.7,303.6,393.7z"/>
	<path id="path-11" d="M246,393.7c-1.2,0-2.5-0.3-3.7-0.8c-4.5-2.1-6.6-7.4-4.5-11.9l6.6-14.5c2.1-4.5,7.4-6.6,11.9-4.5
		c4.5,2.1,6.6,7.4,4.5,11.9l-6.6,14.5C252.7,391.7,249.5,393.7,246,393.7z"/>
	<path id="path-12" d="M188.4,393.7c-1.2,0-2.5-0.3-3.7-0.8c-4.5-2.1-6.6-7.4-4.5-11.9l6.6-14.5c2-4.5,7.4-6.6,11.9-4.5
		c4.5,2.1,6.6,7.4,4.5,11.9l-6.6,14.5C195.1,391.7,191.9,393.7,188.4,393.7z"/>
	<path id="path-13" d="M130.8,393.7c-1.2,0-2.5-0.3-3.7-0.8c-4.5-2.1-6.6-7.4-4.5-11.9l6.6-14.5c2.1-4.5,7.4-6.6,11.9-4.5
		c4.5,2.1,6.6,7.4,4.5,11.9l-6.6,14.5C137.6,391.7,134.3,393.7,130.8,393.7z"/>
	<path id="path-14" d="M251,446.3c-1.2,0-2.5-0.3-3.7-0.8c-4.5-2.1-6.6-7.4-4.5-11.9l6.6-14.5c2.1-4.5,7.4-6.6,11.9-4.5
		c4.5,2.1,6.6,7.4,4.5,11.9l-6.6,14.5C257.7,444.4,254.4,446.3,251,446.3z"/>
	<path id="path-15" d="M193.4,446.3c-1.2,0-2.5-0.3-3.7-0.8c-4.5-2.1-6.6-7.4-4.5-11.9l6.6-14.5c2.1-4.5,7.4-6.6,11.9-4.5
		c4.5,2.1,6.6,7.4,4.5,11.9l-6.6,14.5C200.1,444.4,196.8,446.3,193.4,446.3z"/>
	<path id="path-16" d="M135.8,446.3c-1.2,0-2.5-0.3-3.7-0.8c-4.5-2.1-6.6-7.4-4.5-11.9l6.6-14.5c2.1-4.5,7.4-6.6,11.9-4.5
		c4.5,2.1,6.6,7.4,4.5,11.9L144,441C142.5,444.4,139.2,446.3,135.8,446.3z"/>
	<path id="path-17" d="M300.1,337.7c-2.6,0-5.3-1.1-7-3.4c-3.1-3.9-2.5-9.6,1.4-12.7l48.1-38.7l-39.3-16.1c-3.1-1.3-5.2-4.2-5.6-7.5
		c-0.3-3.3,1.2-6.6,4-8.4l53.4-35.1c4.2-2.7,9.8-1.6,12.5,2.6c2.7,4.2,1.6,9.8-2.6,12.5l-39.1,25.7l37.6,15.4c2.9,1.2,5,3.9,5.5,7.1
		c0.5,3.2-0.8,6.3-3.3,8.3l-60,48.3C304.1,337.1,302.1,337.7,300.1,337.7z"/>
</g>
</svg>
