<?xml version="1.0" encoding="utf-8"?>
<!-- Generator: Adobe Illustrator 22.1.0, SVG Export Plug-In . SVG Version: 6.00 Build 0)  -->
<svg version="1.1" id="Layer_1" xmlns="http://www.w3.org/2000/svg" xmlns:xlink="http://www.w3.org/1999/xlink" x="0px" y="0px"
	 viewBox="0 0 512 512" style="enable-background:new 0 0 512 512;" xml:space="preserve">
<style type="text/css">
	.st0{fill:#8B71B5;}
	.st1{fill:#53ECF4;}
</style>
<g id="group-15svg">
	<path id="path-1" class="st0" d="M221.3,195c-27.2-27.2-34.3-66.9-21.5-100.7c-12.1,4.6-23.5,11.7-33.3,21.5
		c-37,37-37,90.3,0,127.3l0,0"/>
	<path id="path-2" class="st1" d="M423.8,352.7c20.3-19.5,31.8-46,32.2-77.8c0.6-48.5-30.9-91.8-78.3-102
		c-40.6-8.7-78.2,6.2-101.3,34.1c-10.4-4.4-21.7-7-33.7-7c-36.6,0-67.8,22.7-80.4,54.9c-15.9-3.6-33.9-2.1-53.1,16.4
		c-11.9,11.4-19.7,26.7-19.6,43.1c0,9.1,2.1,17.4,5.8,25l0,0"/>
	<path id="path-3" d="M399.3,355.8c-2.4,0-4.8-0.9-6.6-2.8c-3.5-3.6-3.4-9.4,0.3-12.9c18.9-18.2,29.1-42.8,29.4-71.3
		c0.6-45.6-28.7-83.8-71.1-92.9c-35.5-7.6-70,4-92.3,31c-2.6,3.1-6.9,4.2-10.7,2.6c-9.8-4.2-19.9-6.3-30.1-6.3
		c-32,0-60.2,19.3-71.8,49.1c-1.6,4.2-6.1,6.6-10.6,5.6c-11.3-2.6-26.7-3.3-44.8,14.1c-10.9,10.4-16.9,23.4-16.8,36.5
		c0,7.4,1.7,14.4,4.9,21c2.2,4.5,0.4,10-4.2,12.3c-4.5,2.2-10,0.4-12.3-4.2c-4.5-9.1-6.7-18.8-6.8-29c-0.1-18.2,7.9-35.9,22.5-49.8
		c16.5-15.8,34.2-22.3,53.9-20c15.9-32.9,48.8-53.8,85.9-53.8c10.5,0,20.9,1.8,31,5.3c26.5-28.4,66.4-40.7,105.9-32.2
		c50.2,10.8,86.2,57.5,85.5,111.1c-0.4,33.5-12.5,62.6-35,84.3C403.9,354.9,401.6,355.8,399.3,355.8z"/>
	<path id="path-4" d="M307.4,379.5c-1.3,0-2.5-0.3-3.8-0.8c-4.6-2.1-6.7-7.5-4.6-12.1l6.7-14.8c2.1-4.6,7.5-6.7,12.1-4.6
		c4.6,2.1,6.7,7.5,4.6,12.1l-6.7,14.8C314.2,377.5,310.9,379.5,307.4,379.5z"/>
	<path id="path-5" d="M248.9,379.5c-1.3,0-2.5-0.3-3.8-0.8c-4.6-2.1-6.7-7.5-4.6-12.1l6.7-14.8c2.1-4.6,7.5-6.7,12.1-4.6
		c4.6,2.1,6.7,7.5,4.6,12.1l-6.7,14.8C255.7,377.5,252.4,379.5,248.9,379.5z"/>
	<path id="path-6" d="M190.5,379.5c-1.3,0-2.5-0.3-3.8-0.8c-4.6-2.1-6.7-7.5-4.6-12.1l6.7-14.8c2.1-4.6,7.5-6.7,12.1-4.6
		c4.6,2.1,6.7,7.5,4.6,12.1l-6.7,14.8C197.3,377.5,193.9,379.5,190.5,379.5z"/>
	<path id="path-7" d="M132,379.5c-1.3,0-2.5-0.3-3.8-0.8c-4.6-2.1-6.7-7.5-4.6-12.1l6.7-14.8c2.1-4.6,7.5-6.7,12.1-4.6
		c4.6,2.1,6.7,7.5,4.6,12.1l-6.7,14.8C138.8,377.5,135.5,379.5,132,379.5z"/>
	<path id="path-8" d="M253.9,433c-1.3,0-2.5-0.3-3.8-0.8c-4.6-2.1-6.7-7.5-4.6-12.1l6.7-14.8c2.1-4.6,7.5-6.7,12.1-4.6
		c4.6,2.1,6.7,7.5,4.6,12.1l-6.7,14.8C260.8,431,257.4,433,253.9,433z"/>
	<path id="path-9" d="M195.5,433c-1.3,0-2.5-0.3-3.8-0.8c-4.6-2.1-6.7-7.5-4.6-12.1l6.7-14.8c2.1-4.6,7.5-6.7,12.1-4.6
		c4.6,2.1,6.7,7.5,4.6,12.1l-6.7,14.8C202.3,431,198.9,433,195.5,433z"/>
	<path id="path-10" d="M137,433c-1.3,0-2.5-0.3-3.8-0.8c-4.6-2.1-6.7-7.5-4.6-12.1l6.7-14.8c2.1-4.6,7.5-6.7,12.1-4.6
		c4.6,2.1,6.7,7.5,4.6,12.1l-6.7,14.8C143.8,431,140.5,433,137,433z"/>
	<path id="path-11" d="M303.8,322.7c-2.7,0-5.3-1.2-7.1-3.4c-3.2-3.9-2.5-9.7,1.4-12.9l48.8-39.3L307,250.8
		c-3.1-1.3-5.3-4.2-5.6-7.6c-0.3-3.4,1.3-6.7,4.1-8.5l54.2-35.6c4.2-2.8,9.9-1.6,12.7,2.6c2.8,4.2,1.6,9.9-2.6,12.7L330,240.4
		l38.2,15.7c3,1.2,5.1,4,5.6,7.2c0.5,3.2-0.8,6.4-3.3,8.5l-60.9,49C307.9,322.1,305.8,322.7,303.8,322.7z"/>
	<path id="path-12" d="M142.1,246.2c-2.3,0-4.7-0.9-6.5-2.7c-40.6-40.6-40.6-99.6,0-140.3c10.4-10.4,22.7-18.3,36.5-23.6
		c3.4-1.3,7.2-0.5,9.7,2.1c2.6,2.6,3.4,6.4,2.1,9.7c-12,31.5-4.3,67.2,19.4,91c3.6,3.6,3.6,9.4,0,13c-3.6,3.6-9.4,3.6-13,0
		c-23.7-23.7-34.2-57.3-29.1-89.7c-4.6,3.1-8.8,6.6-12.8,10.5c-33.7,33.7-33.7,80.7,0,114.4c3.6,3.6,3.6,9.4,0,13
		C146.7,245.3,144.4,246.2,142.1,246.2z"/>
</g>
</svg>
