<?xml version="1.0" encoding="utf-8"?>
<!-- Generator: Adobe Illustrator 22.1.0, SVG Export Plug-In . SVG Version: 6.00 Build 0)  -->
<svg version="1.1" id="Layer_1" xmlns="http://www.w3.org/2000/svg" xmlns:xlink="http://www.w3.org/1999/xlink" x="0px" y="0px"
	 viewBox="0 0 512 512" style="enable-background:new 0 0 512 512;" xml:space="preserve">
<style type="text/css">
	.st0{fill:#53ECF4;}
	.st1{fill:#8B71B5;}
</style>
<g id="group-3svg">
	<path id="path-1" class="st0" d="M424.3,324.1c20-19.2,31.3-45.2,31.7-76.4c0.6-47.6-30.4-90.2-76.9-100.2
		c-39.8-8.6-76.9,6.1-99.5,33.5c-10.2-4.3-21.4-6.9-33.1-6.9c-36,0-66.6,22.3-78.9,53.9c-15.6-3.5-33.3-2-52.2,16.1
		c-11.7,11.2-19.4,26.2-19.3,42.4c0,9,2.1,17.1,5.7,24.6l0,0"/>
	<path id="path-2" class="st1" d="M387.1,291.7c0.4-29.4-18.7-55.7-47.5-61.8c-24.6-5.3-47.4,3.7-61.4,20.7
		c-6.3-2.7-13.2-4.2-20.4-4.2c-22.2,0-41.1,13.8-48.7,33.3c-9.6-2.2-20.5-1.2-32.2,9.9l0,0"/>
	<path id="path-3" d="M393.7,315.2c-2.5,0-5-1-6.8-2.9c-3.6-3.8-3.5-9.8,0.3-13.4c18.5-17.7,28.4-41.8,28.8-69.7
		c0.5-44.6-28-81.9-69.4-90.8c-34.7-7.4-68.4,3.9-90.2,30.3c-2.7,3.2-7.1,4.3-11,2.7c-9.5-4.1-19.4-6.1-29.4-6.1
		c-31.2,0-58.8,18.8-70.1,47.9c-1.7,4.4-6.3,6.8-10.9,5.8c-11-2.5-25.9-3.2-43.6,13.7c-10.6,10.1-16.4,22.7-16.4,35.5
		c0,7.2,1.6,14,4.8,20.4c2.3,4.7,0.4,10.4-4.3,12.7c-4.7,2.3-10.4,0.4-12.7-4.3c-4.4-9-6.7-18.6-6.7-28.7
		c-0.1-18,7.8-35.5,22.2-49.3c16.2-15.5,33.6-22,53-19.8c15.7-32.3,48.2-52.8,84.6-52.8c10.3,0,20.4,1.7,30.4,5.1
		c26.1-27.8,65.4-39.9,104.2-31.6c49.5,10.6,85,56.7,84.4,109.6c-0.4,33-12.4,61.8-34.6,83.1C398.5,314.3,396.1,315.2,393.7,315.2z"
		/>
	<path id="path-4" d="M356.5,285.1c0,0-0.1,0-0.1,0c-5.2,0-9.4-5.5-9.4-10.7c0.3-25.8-16.1-47.9-40-53c-20.1-4.3-39.5,1.9-52.1,17.2
		c-2.7,3.2-7.2,4.2-11,2.5c-5.4-2.3-11.1-3.6-16.7-3.6c-17.8,0-33.4,10.7-39.9,27.2c-1.7,4.4-6.3,6.8-10.9,5.8
		c-6.3-1.4-14-1.7-23.6,7.5c-3.8,3.6-9.8,3.5-13.4-0.3c-3.6-3.8-3.5-9.8,0.3-13.4c10-9.5,21.1-14,33.1-13.4
		c10.7-19.9,31.3-32.4,54.4-32.4c6,0,11.9,0.9,17.7,2.7c17-16.9,41.7-24.1,66.1-18.9c32.3,6.9,55.4,38,54.9,72.3
		C365.9,279.8,361.7,285.1,356.5,285.1z"/>
	<path id="path-5" d="M97.7,345.5c0-5.4,4.4-9.8,9.8-9.8c5.4,0,9.8,4.4,9.8,9.8c0,5.4-4.4,9.8-9.8,9.8
		C102.2,355.3,97.7,350.9,97.7,345.5z"/>
	<path id="path-6" d="M146.3,345.5c0-5.4,4.4-9.8,9.8-9.8c5.4,0,9.8,4.4,9.8,9.8c0,5.4-4.4,9.8-9.8,9.8
		C150.7,355.3,146.3,350.9,146.3,345.5z"/>
	<path id="path-7" d="M196.2,345.5c0-5.4,4.4-9.8,9.8-9.8c5.4,0,9.8,4.4,9.8,9.8c0,5.4-4.4,9.8-9.8,9.8
		C200.6,355.3,196.2,350.9,196.2,345.5z"/>
	<path id="path-8" d="M243.5,345.5c0-5.4,4.4-9.8,9.8-9.8c5.4,0,9.8,4.4,9.8,9.8c0,5.4-4.4,9.8-9.8,9.8
		C247.9,355.3,243.5,350.9,243.5,345.5z"/>
	<path id="path-9" d="M292.1,345.5c0-5.4,4.4-9.8,9.8-9.8c5.4,0,9.8,4.4,9.8,9.8c0,5.4-4.4,9.8-9.8,9.8
		C296.5,355.3,292.1,350.9,292.1,345.5z"/>
	<path id="path-10" d="M58.4,384.8c0-5.4,4.4-9.8,9.8-9.8c5.4,0,9.8,4.4,9.8,9.8c0,5.4-4.4,9.9-9.8,9.9
		C62.8,394.7,58.4,390.3,58.4,384.8z"/>
	<path id="path-11" d="M106.9,384.8c0-5.4,4.4-9.8,9.8-9.8c5.4,0,9.8,4.4,9.8,9.8c0,5.4-4.4,9.9-9.8,9.9
		C111.3,394.7,106.9,390.3,106.9,384.8z"/>
	<path id="path-12" d="M156.8,384.8c0-5.4,4.4-9.8,9.8-9.8c5.4,0,9.8,4.4,9.8,9.8c0,5.4-4.4,9.9-9.8,9.9
		C161.2,394.7,156.8,390.3,156.8,384.8z"/>
	<path id="path-13" d="M204.1,384.8c0-5.4,4.4-9.8,9.8-9.8c5.4,0,9.8,4.4,9.8,9.8c0,5.4-4.4,9.9-9.8,9.9
		C208.5,394.7,204.1,390.3,204.1,384.8z"/>
	<path id="path-14" d="M252.7,384.8c0-5.4,4.4-9.8,9.8-9.8c5.4,0,9.8,4.4,9.8,9.8c0,5.4-4.4,9.9-9.8,9.9
		C257.1,394.7,252.7,390.3,252.7,384.8z"/>
	<path id="path-15" d="M130.6,306.1c0-5.4,4.4-9.8,9.8-9.8c5.4,0,9.8,4.4,9.8,9.8c0,5.4-4.4,9.8-9.8,9.8
		C135,315.9,130.6,311.5,130.6,306.1z"/>
	<path id="path-16" d="M179.1,306.1c0-5.4,4.4-9.8,9.8-9.8c5.4,0,9.8,4.4,9.8,9.8c0,5.4-4.4,9.8-9.8,9.8
		C183.6,315.9,179.1,311.5,179.1,306.1z"/>
	<path id="path-17" d="M229,306.1c0-5.4,4.4-9.8,9.8-9.8c5.4,0,9.8,4.4,9.8,9.8c0,5.4-4.4,9.8-9.8,9.8
		C233.4,315.9,229,311.5,229,306.1z"/>
	<path id="path-18" d="M276.3,306.1c0-5.4,4.4-9.8,9.8-9.8c5.4,0,9.8,4.4,9.8,9.8c0,5.4-4.4,9.8-9.8,9.8
		C280.7,315.9,276.3,311.5,276.3,306.1z"/>
	<path id="path-19" d="M324.9,306.1c0-5.4,4.4-9.8,9.8-9.8c5.4,0,9.8,4.4,9.8,9.8c0,5.4-4.4,9.8-9.8,9.8
		C329.3,315.9,324.9,311.5,324.9,306.1z"/>
</g>
</svg>
